<mxfile host="app.diagrams.net" modified="2023-04-05T22:03:28.675Z" agent="Mozilla/5.0 (Windows NT 10.0; Win64; x64) AppleWebKit/537.36 (KHTML, like Gecko) Chrome/111.0.0.0 Safari/537.36" version="21.1.4" etag="y0Q-HPYMD3jgVkc3_SCi" type="github">
  <diagram name="PÃ¡gina-1" id="WAbbyUD846dWkYqEZnZZ">
    <mxGraphModel>
      <root>
        <mxCell id="0" />
        <mxCell id="1" parent="0" />
      </root>
    </mxGraphModel>
  </diagram>
</mxfile>
